<svg id="svg" version="1.1" xmlns="http://www.w3.org/2000/svg" xmlns:xlink="http://www.w3.org/1999/xlink" width="400" height="400" viewBox="0, 0, 400,400"><g id="svgg"><path id="path0" d="M67.600 86.400 C 67.600 86.620,66.970 86.800,66.200 86.800 C 65.430 86.800,64.800 86.980,64.800 87.200 C 64.800 87.420,64.538 87.600,64.218 87.600 C 63.898 87.600,63.186 88.050,62.636 88.600 C 62.086 89.150,61.443 89.600,61.206 89.600 C 60.969 89.600,60.671 89.870,60.545 90.200 C 60.418 90.530,60.064 90.800,59.757 90.800 C 59.275 90.800,59.007 91.541,59.148 92.486 C 59.171 92.643,58.923 92.668,58.595 92.543 C 58.220 92.399,58.000 92.552,58.000 92.957 C 58.000 93.311,57.820 93.600,57.600 93.600 C 57.380 93.600,57.200 93.870,57.200 94.200 C 57.200 94.530,57.065 94.801,56.900 94.803 C 56.450 94.806,55.200 97.158,55.200 97.999 C 55.200 98.403,54.975 98.808,54.700 98.900 C 53.965 99.145,53.965 252.455,54.700 252.700 C 54.975 252.792,55.200 253.302,55.200 253.833 C 55.200 254.365,55.380 254.800,55.600 254.800 C 55.820 254.800,56.000 255.160,56.000 255.600 C 56.000 256.044,56.267 256.400,56.600 256.400 C 56.973 256.400,57.200 256.778,57.200 257.400 C 57.200 257.950,57.380 258.400,57.600 258.400 C 57.820 258.400,58.000 258.670,58.000 259.000 C 58.000 259.330,58.188 259.600,58.418 259.600 C 58.961 259.600,60.800 261.439,60.800 261.982 C 60.800 262.212,61.070 262.400,61.400 262.400 C 61.730 262.400,62.000 262.580,62.000 262.800 C 62.000 263.020,62.366 263.200,62.813 263.200 C 63.259 263.200,63.729 263.470,63.855 263.800 C 63.982 264.130,64.426 264.400,64.843 264.400 C 65.259 264.400,65.600 264.580,65.600 264.800 C 65.600 265.020,66.039 265.200,66.576 265.200 C 67.113 265.200,67.664 265.380,67.800 265.600 C 67.963 265.863,84.071 266.000,114.824 266.000 L 161.600 266.000 161.600 269.520 C 161.600 271.456,161.429 273.211,161.220 273.420 C 161.008 273.633,160.813 277.752,160.777 282.800 L 160.713 291.800 192.622 291.902 C 221.888 291.996,224.593 291.950,225.266 291.340 C 226.153 290.538,226.227 288.686,225.400 288.000 C 224.967 287.641,224.800 286.691,224.800 284.598 C 224.800 282.032,224.707 281.669,224.002 281.485 C 223.563 281.370,223.097 280.996,222.965 280.653 C 222.834 280.311,221.753 279.017,220.563 277.779 C 219.373 276.541,218.400 275.364,218.400 275.164 C 218.400 274.964,218.130 274.800,217.800 274.800 C 217.460 274.800,217.200 274.441,217.200 273.971 C 217.200 273.086,216.334 272.000,215.629 272.000 C 215.393 272.000,215.200 271.550,215.200 271.000 C 215.200 270.450,215.020 270.000,214.800 270.000 C 214.580 270.000,214.400 269.640,214.400 269.200 C 214.400 268.760,214.220 268.400,214.000 268.400 C 213.780 268.400,213.600 268.130,213.600 267.800 C 213.600 267.470,213.330 267.200,213.000 267.200 C 212.627 267.200,212.400 266.822,212.400 266.200 C 212.400 265.650,212.220 265.200,212.000 265.200 C 211.780 265.200,211.600 264.834,211.600 264.387 C 211.600 263.941,211.330 263.471,211.000 263.345 C 210.670 263.218,210.400 262.681,210.400 262.152 C 210.400 261.622,210.192 260.787,209.938 260.295 C 209.079 258.634,208.903 258.178,208.619 256.887 C 208.464 256.179,208.171 255.600,207.968 255.600 C 207.766 255.600,207.600 254.970,207.600 254.200 C 207.600 253.430,207.420 252.800,207.200 252.800 C 206.980 252.800,206.800 252.170,206.800 251.400 C 206.800 250.422,206.619 250.000,206.200 250.000 C 205.870 250.000,205.600 249.730,205.600 249.400 C 205.600 248.869,197.942 248.800,139.080 248.800 C 87.876 248.800,72.449 248.689,72.080 248.320 C 71.710 247.950,71.600 231.272,71.600 175.684 L 71.600 103.528 72.500 102.777 C 73.754 101.731,313.200 101.554,313.200 102.600 C 313.200 102.930,313.380 103.200,313.600 103.200 C 313.864 103.200,314.000 117.206,314.000 144.418 L 314.000 185.635 317.000 188.587 C 318.650 190.211,320.000 191.656,320.000 191.798 C 320.000 192.215,321.104 193.200,321.571 193.200 C 321.807 193.200,322.000 193.470,322.000 193.800 C 322.000 194.130,322.180 194.400,322.400 194.400 C 322.620 194.400,322.800 194.655,322.800 194.966 C 322.800 195.277,323.430 196.180,324.200 196.973 C 324.970 197.766,325.600 198.771,325.600 199.207 C 325.600 199.645,325.869 200.000,326.200 200.000 C 326.533 200.000,326.800 200.356,326.800 200.800 C 326.800 201.240,326.980 201.600,327.200 201.600 C 327.420 201.600,327.600 201.870,327.600 202.200 C 327.600 202.530,327.780 202.800,328.000 202.800 C 328.220 202.800,328.400 203.214,328.400 203.720 C 328.400 205.370,330.576 206.354,331.451 205.100 C 332.044 204.250,331.499 99.500,330.900 99.300 C 330.625 99.208,330.400 98.518,330.400 97.767 C 330.400 97.015,330.220 96.400,330.000 96.400 C 329.780 96.400,329.600 96.034,329.600 95.587 C 329.600 95.141,329.361 94.683,329.068 94.571 C 328.776 94.459,328.298 93.760,328.007 93.018 C 327.716 92.277,327.056 91.444,326.539 91.167 C 326.023 90.891,325.600 90.425,325.600 90.132 C 325.600 89.840,325.265 89.600,324.855 89.600 C 324.445 89.600,323.638 89.129,323.063 88.554 C 322.450 87.941,321.765 87.604,321.408 87.741 C 321.034 87.885,320.800 87.749,320.800 87.387 C 320.800 87.028,320.413 86.800,319.800 86.800 C 319.250 86.800,318.800 86.620,318.800 86.400 C 318.800 86.134,276.667 86.000,193.200 86.000 C 109.733 86.000,67.600 86.134,67.600 86.400 M135.855 119.000 C 135.686 119.442,134.988 119.600,133.213 119.600 C 131.871 119.600,130.800 119.778,130.800 120.000 C 130.800 120.220,130.189 120.400,129.443 120.400 C 128.612 120.400,127.997 120.630,127.858 120.993 C 127.729 121.329,127.365 121.485,127.019 121.352 C 126.661 121.215,126.304 121.384,126.161 121.758 C 126.025 122.111,125.574 122.400,125.157 122.400 C 124.741 122.400,124.400 122.580,124.400 122.800 C 124.400 123.020,124.130 123.200,123.800 123.200 C 123.470 123.200,123.200 123.393,123.200 123.629 C 123.200 124.193,122.178 125.200,121.605 125.200 C 121.356 125.200,121.264 125.380,121.400 125.600 C 121.536 125.820,121.367 126.000,121.024 126.000 C 120.681 126.000,120.400 126.227,120.400 126.505 C 120.400 126.783,119.950 127.348,119.400 127.761 C 118.850 128.174,118.400 128.847,118.400 129.256 C 118.400 129.665,118.220 130.000,118.000 130.000 C 117.780 130.000,117.600 130.450,117.600 131.000 C 117.600 131.654,117.376 132.000,116.953 132.000 C 116.497 132.000,116.370 132.243,116.522 132.824 C 116.654 133.329,116.517 133.734,116.169 133.867 C 115.796 134.010,115.600 134.692,115.600 135.843 C 115.600 136.809,115.420 137.600,115.200 137.600 C 114.952 137.600,114.800 139.792,114.800 143.376 C 114.800 146.796,114.963 149.254,115.200 149.400 C 115.420 149.536,115.600 150.279,115.600 151.052 C 115.600 151.825,115.862 152.719,116.183 153.040 C 116.504 153.361,116.675 153.859,116.565 154.147 C 116.454 154.436,116.642 154.903,116.982 155.185 C 117.322 155.467,117.600 155.910,117.600 156.169 C 117.600 156.895,118.560 158.793,118.929 158.797 C 119.550 158.803,120.400 159.944,120.400 160.771 C 120.400 161.241,120.660 161.600,121.000 161.600 C 121.330 161.600,121.600 161.780,121.600 162.000 C 121.600 162.220,121.960 162.400,122.400 162.400 C 122.844 162.400,123.200 162.667,123.200 163.000 C 123.200 163.330,123.427 163.600,123.705 163.600 C 123.983 163.600,124.548 164.050,124.961 164.600 C 125.374 165.150,126.047 165.600,126.456 165.600 C 126.865 165.600,127.200 165.780,127.200 166.000 C 127.200 166.220,127.650 166.400,128.200 166.400 C 128.750 166.400,129.200 166.580,129.200 166.800 C 129.200 167.020,129.991 167.200,130.957 167.200 C 132.150 167.200,132.788 167.393,132.945 167.800 C 133.131 168.285,134.052 168.400,137.745 168.400 C 141.438 168.400,142.359 168.285,142.545 167.800 C 142.702 167.389,143.345 167.200,144.587 167.200 C 145.584 167.200,146.400 167.020,146.400 166.800 C 146.400 166.580,146.749 166.400,147.176 166.400 C 147.603 166.400,148.064 166.220,148.200 166.000 C 148.336 165.780,148.797 165.600,149.224 165.600 C 149.651 165.600,150.000 165.330,150.000 165.000 C 150.000 164.660,150.359 164.400,150.829 164.400 C 151.714 164.400,152.800 163.534,152.800 162.829 C 152.800 162.593,152.987 162.400,153.216 162.400 C 153.978 162.400,156.800 159.275,156.800 158.431 C 156.800 157.974,156.980 157.600,157.200 157.600 C 157.420 157.600,157.600 157.339,157.600 157.020 C 157.600 156.701,157.825 156.296,158.100 156.120 C 158.909 155.602,159.600 154.098,159.600 152.854 C 159.600 152.218,159.870 151.474,160.200 151.200 C 160.692 150.792,160.800 149.425,160.800 143.600 C 160.800 137.775,160.692 136.408,160.200 136.000 C 159.870 135.726,159.600 134.894,159.600 134.151 C 159.600 133.408,159.420 132.800,159.200 132.800 C 158.980 132.800,158.800 132.434,158.800 131.987 C 158.800 131.541,158.530 131.071,158.200 130.945 C 157.870 130.818,157.600 130.374,157.600 129.957 C 157.600 129.541,157.420 129.200,157.200 129.200 C 156.980 129.200,156.800 129.007,156.800 128.771 C 156.800 128.536,156.575 128.092,156.300 127.785 C 155.214 126.574,154.800 126.023,154.800 125.788 C 154.800 125.426,153.710 124.400,153.324 124.400 C 153.142 124.400,152.507 123.950,151.913 123.400 C 151.320 122.850,150.724 122.400,150.589 122.400 C 150.454 122.400,150.063 122.120,149.720 121.777 C 149.377 121.434,148.865 121.243,148.582 121.352 C 148.298 121.460,147.967 121.291,147.846 120.975 C 147.721 120.650,147.098 120.400,146.413 120.400 C 145.746 120.400,145.200 120.220,145.200 120.000 C 145.200 119.779,144.148 119.600,142.843 119.600 C 141.116 119.600,140.424 119.439,140.255 119.000 C 140.094 118.579,139.437 118.400,138.055 118.400 C 136.673 118.400,136.017 118.579,135.855 119.000 M102.000 120.000 C 102.000 120.220,101.732 120.400,101.405 120.400 C 100.386 120.400,99.200 121.727,99.200 122.865 C 99.200 123.463,99.020 124.064,98.800 124.200 C 98.545 124.358,98.400 129.804,98.400 139.224 C 98.400 152.092,98.323 154.000,97.800 154.000 C 97.336 154.000,97.200 153.476,97.200 151.688 C 97.200 149.835,97.041 149.262,96.400 148.800 C 95.960 148.483,95.600 147.993,95.600 147.712 C 95.600 147.430,95.330 147.200,95.000 147.200 C 94.670 147.200,94.400 147.020,94.400 146.800 C 94.400 146.567,93.067 146.400,91.200 146.400 C 89.333 146.400,88.000 146.567,88.000 146.800 C 88.000 147.020,87.280 147.200,86.400 147.200 C 85.474 147.200,84.800 147.391,84.800 147.653 C 84.800 147.903,84.332 148.509,83.761 149.000 C 82.582 150.013,82.360 157.921,83.500 158.300 C 83.775 158.392,84.000 158.992,84.000 159.633 C 84.000 160.275,84.180 160.800,84.400 160.800 C 84.620 160.800,84.800 161.160,84.800 161.600 C 84.800 162.044,85.067 162.400,85.400 162.400 C 85.730 162.400,86.000 162.587,86.000 162.816 C 86.000 163.578,89.125 166.400,89.969 166.400 C 90.426 166.400,90.800 166.580,90.800 166.800 C 90.800 167.020,91.430 167.200,92.200 167.200 C 93.178 167.200,93.600 167.381,93.600 167.800 C 93.600 168.295,94.333 168.400,97.800 168.400 C 101.267 168.400,102.000 168.295,102.000 167.800 C 102.000 167.383,102.420 167.200,103.376 167.200 C 104.133 167.200,104.864 167.020,105.000 166.800 C 105.136 166.580,105.597 166.400,106.024 166.400 C 106.451 166.400,106.800 166.220,106.800 166.000 C 106.800 165.780,107.070 165.600,107.400 165.600 C 107.730 165.600,108.000 165.330,108.000 165.000 C 108.000 164.670,108.348 164.400,108.773 164.400 C 109.224 164.400,109.665 164.025,109.830 163.500 C 109.987 163.005,110.449 162.309,110.857 161.953 C 111.266 161.597,111.600 160.942,111.600 160.496 C 111.600 160.050,111.870 159.582,112.200 159.455 C 112.596 159.303,112.800 158.677,112.800 157.613 C 112.800 156.726,112.980 156.000,113.200 156.000 C 113.460 156.000,113.600 150.133,113.600 139.200 C 113.600 128.267,113.460 122.400,113.200 122.400 C 112.980 122.400,112.800 122.111,112.800 121.757 C 112.800 121.350,112.580 121.199,112.200 121.345 C 111.870 121.471,111.600 121.388,111.600 121.159 C 111.600 119.946,110.409 119.600,106.229 119.600 C 103.676 119.600,102.000 119.759,102.000 120.000 M164.100 120.198 C 163.825 120.511,163.600 120.984,163.600 121.250 C 163.600 121.516,163.495 121.628,163.367 121.500 C 163.238 121.372,162.788 121.612,162.367 122.033 C 161.514 122.886,161.128 164.400,161.973 164.400 C 162.178 164.400,162.472 164.797,162.626 165.281 C 163.236 167.204,163.210 167.200,176.171 167.200 C 184.057 167.200,188.400 167.058,188.400 166.800 C 188.400 166.580,189.030 166.400,189.800 166.400 C 190.570 166.400,191.200 166.220,191.200 166.000 C 191.200 165.780,191.650 165.600,192.200 165.600 C 192.822 165.600,193.200 165.373,193.200 165.000 C 193.200 164.670,193.515 164.394,193.900 164.387 C 194.765 164.372,196.000 163.471,196.000 162.856 C 196.000 162.605,196.270 162.400,196.600 162.400 C 196.933 162.400,197.200 162.044,197.200 161.600 C 197.200 161.160,197.380 160.800,197.600 160.800 C 197.820 160.800,198.000 160.607,198.000 160.371 C 198.000 160.136,198.270 159.673,198.600 159.343 C 198.930 159.013,199.200 158.306,199.200 157.771 C 199.200 157.237,199.380 156.800,199.600 156.800 C 199.846 156.800,200.000 154.800,200.000 151.600 C 200.000 148.400,199.846 146.400,199.600 146.400 C 199.380 146.400,199.200 145.950,199.200 145.400 C 199.200 144.778,198.973 144.400,198.600 144.400 C 198.270 144.400,197.994 144.085,197.987 143.700 C 197.980 143.315,197.735 142.685,197.443 142.300 C 196.887 141.567,197.035 139.600,197.647 139.600 C 197.841 139.600,198.000 138.700,198.000 137.600 C 198.000 136.500,198.180 135.600,198.400 135.600 C 198.620 135.600,198.800 135.071,198.800 134.424 C 198.800 133.777,198.620 133.136,198.400 133.000 C 198.180 132.864,198.000 131.953,198.000 130.976 C 198.000 129.999,197.820 129.200,197.600 129.200 C 197.380 129.200,197.200 128.750,197.200 128.200 C 197.200 127.578,196.973 127.200,196.600 127.200 C 196.263 127.200,196.000 126.843,196.000 126.384 C 196.000 125.315,193.097 122.400,192.031 122.400 C 191.534 122.400,191.200 122.141,191.200 121.757 C 191.200 121.365,190.978 121.200,190.629 121.333 C 190.315 121.454,189.843 121.293,189.580 120.976 C 189.317 120.659,188.416 120.400,187.575 120.400 C 186.735 120.400,185.936 120.220,185.800 120.000 C 185.376 119.313,164.713 119.502,164.100 120.198 M206.800 120.000 C 206.800 120.220,206.530 120.400,206.200 120.400 C 205.870 120.400,205.600 120.670,205.600 121.000 C 205.600 121.330,205.382 121.555,205.115 121.500 C 204.848 121.445,204.445 121.805,204.220 122.300 C 203.995 122.795,203.628 123.201,203.405 123.203 C 202.674 123.209,202.000 125.318,202.000 127.600 C 202.000 129.993,202.682 131.992,203.500 131.997 C 203.775 131.999,204.000 132.268,204.000 132.595 C 204.000 133.465,205.265 134.800,206.089 134.800 C 206.480 134.800,206.800 134.980,206.800 135.200 C 206.800 135.464,222.067 135.600,251.800 135.600 C 281.533 135.600,296.800 135.464,296.800 135.200 C 296.800 134.980,297.250 134.800,297.800 134.800 C 298.350 134.800,298.800 134.639,298.800 134.442 C 298.800 134.245,299.247 133.660,299.793 133.142 C 300.339 132.624,300.789 131.885,300.793 131.500 C 300.797 131.115,300.980 130.800,301.200 130.800 C 301.433 130.800,301.600 129.467,301.600 127.600 C 301.600 125.840,301.440 124.400,301.243 124.400 C 301.047 124.400,300.774 123.950,300.636 123.400 C 300.498 122.850,300.208 122.400,299.992 122.400 C 299.777 122.400,299.600 122.195,299.600 121.944 C 299.600 121.329,298.365 120.428,297.500 120.413 C 297.115 120.406,296.800 120.220,296.800 120.000 C 296.800 119.736,281.533 119.600,251.800 119.600 C 222.067 119.600,206.800 119.736,206.800 120.000 M140.545 133.400 C 140.671 133.730,141.141 134.000,141.587 134.000 C 142.034 134.000,142.400 134.180,142.400 134.400 C 142.400 134.620,142.593 134.800,142.829 134.800 C 143.534 134.800,144.400 135.886,144.400 136.771 C 144.400 137.227,144.580 137.600,144.800 137.600 C 145.020 137.600,145.200 138.230,145.200 139.000 C 145.200 139.978,145.381 140.400,145.800 140.400 C 146.277 140.400,146.400 140.981,146.400 143.229 C 146.400 145.210,146.220 146.237,145.800 146.657 C 145.470 146.987,145.200 147.684,145.200 148.205 C 145.200 148.726,145.020 149.264,144.800 149.400 C 144.580 149.536,144.400 149.919,144.400 150.252 C 144.400 150.951,143.457 152.000,142.829 152.000 C 142.593 152.000,142.400 152.193,142.400 152.429 C 142.400 153.568,141.198 154.000,138.029 154.000 C 136.143 154.000,134.800 153.834,134.800 153.600 C 134.800 153.380,134.350 153.200,133.800 153.200 C 133.250 153.200,132.800 153.007,132.800 152.771 C 132.800 152.218,131.782 151.200,131.229 151.200 C 130.993 151.200,130.800 150.750,130.800 150.200 C 130.800 149.650,130.620 149.200,130.400 149.200 C 130.153 149.200,130.000 147.133,130.000 143.800 C 130.000 140.467,130.153 138.400,130.400 138.400 C 130.620 138.400,130.800 138.062,130.800 137.649 C 130.800 137.236,131.070 136.674,131.400 136.400 C 131.730 136.126,132.000 135.654,132.000 135.351 C 132.000 135.048,132.360 134.800,132.800 134.800 C 133.240 134.800,133.600 134.620,133.600 134.400 C 133.600 134.180,133.966 134.000,134.413 134.000 C 134.859 134.000,135.329 133.730,135.455 133.400 C 135.623 132.962,136.312 132.800,138.000 132.800 C 139.688 132.800,140.377 132.962,140.545 133.400 M183.600 134.800 C 183.600 135.537,183.333 135.600,180.200 135.600 C 177.067 135.600,176.800 135.537,176.800 134.800 C 176.800 134.063,177.067 134.000,180.200 134.000 C 183.333 134.000,183.600 134.063,183.600 134.800 M184.800 150.600 C 184.800 150.930,184.993 151.200,185.228 151.200 C 185.463 151.200,185.598 151.605,185.528 152.100 C 185.406 152.961,185.214 153.005,181.143 153.113 L 176.887 153.226 176.733 151.613 L 176.579 150.000 180.689 150.000 C 184.077 150.000,184.800 150.106,184.800 150.600 M210.400 150.334 C 209.850 150.407,209.229 150.632,209.020 150.834 C 208.811 151.035,208.226 151.200,207.720 151.200 C 207.214 151.200,206.800 151.380,206.800 151.600 C 206.800 151.820,206.480 152.000,206.089 152.000 C 205.265 152.000,204.000 153.335,204.000 154.205 C 204.000 154.532,203.775 154.801,203.500 154.803 C 203.225 154.805,202.775 155.291,202.500 155.883 C 201.903 157.168,201.823 162.400,202.400 162.400 C 202.620 162.400,202.800 162.670,202.800 163.000 C 202.800 163.330,203.070 163.600,203.400 163.600 C 203.730 163.600,204.000 163.948,204.000 164.373 C 204.000 164.798,204.360 165.260,204.800 165.400 C 205.240 165.540,205.600 165.822,205.600 166.027 C 205.600 166.232,205.870 166.400,206.200 166.400 C 206.530 166.400,206.800 166.580,206.800 166.800 C 206.800 167.064,222.067 167.200,251.800 167.200 C 276.550 167.200,296.800 167.054,296.800 166.875 C 296.800 166.696,297.430 166.302,298.200 166.000 C 299.096 165.649,299.600 165.185,299.600 164.713 C 299.600 164.307,299.870 163.871,300.200 163.745 C 300.530 163.618,300.800 163.264,300.800 162.957 C 300.800 162.651,300.980 162.400,301.200 162.400 C 301.433 162.400,301.600 161.067,301.600 159.200 C 301.600 157.333,301.433 156.000,301.200 156.000 C 300.980 156.000,300.800 155.665,300.800 155.256 C 300.800 154.847,300.350 154.174,299.800 153.761 C 299.250 153.348,298.800 152.783,298.800 152.505 C 298.800 152.227,298.350 152.000,297.800 152.000 C 297.250 152.000,296.800 151.820,296.800 151.600 C 296.800 151.380,296.350 151.200,295.800 151.200 C 295.250 151.200,294.800 151.022,294.800 150.804 C 294.800 150.439,213.017 149.983,210.400 150.334 M264.800 174.600 C 264.435 175.040,263.467 175.200,261.175 175.200 C 259.455 175.200,257.936 175.380,257.800 175.600 C 257.664 175.820,256.764 176.000,255.800 176.000 C 254.836 176.000,253.949 176.160,253.828 176.355 C 253.707 176.550,252.977 176.828,252.204 176.973 C 251.432 177.118,250.800 177.408,250.800 177.618 C 250.800 177.828,250.350 178.000,249.800 178.000 C 249.250 178.000,248.800 178.180,248.800 178.400 C 248.800 178.620,248.254 178.800,247.587 178.800 C 246.879 178.800,246.279 179.049,246.145 179.400 C 246.018 179.730,245.484 180.000,244.957 180.000 C 244.431 180.000,244.000 180.180,244.000 180.400 C 244.000 180.620,243.640 180.800,243.200 180.800 C 242.760 180.800,242.400 180.960,242.400 181.157 C 242.400 181.353,241.950 181.626,241.400 181.764 C 240.850 181.902,240.400 182.192,240.400 182.408 C 240.400 182.623,240.027 182.800,239.571 182.800 C 238.686 182.800,237.600 183.666,237.600 184.371 C 237.600 184.607,237.150 184.800,236.600 184.800 C 236.050 184.800,235.600 184.980,235.600 185.200 C 235.600 185.420,235.407 185.600,235.171 185.600 C 234.618 185.600,233.600 186.618,233.600 187.171 C 233.600 187.407,233.285 187.606,232.900 187.613 C 232.035 187.628,230.800 188.529,230.800 189.144 C 230.800 189.395,230.612 189.600,230.382 189.600 C 229.839 189.600,228.000 191.439,228.000 191.982 C 228.000 192.212,227.807 192.400,227.571 192.400 C 227.018 192.400,226.000 193.418,226.000 193.971 C 226.000 194.207,225.807 194.400,225.571 194.400 C 225.018 194.400,224.000 195.418,224.000 195.971 C 224.000 196.207,223.820 196.400,223.600 196.400 C 223.380 196.400,223.200 196.760,223.200 197.200 C 223.200 197.644,222.933 198.000,222.600 198.000 C 222.270 198.000,222.000 198.227,222.000 198.505 C 222.000 198.783,221.543 199.354,220.983 199.774 C 220.424 200.193,220.052 200.760,220.157 201.032 C 220.262 201.305,219.909 201.857,219.374 202.259 C 218.838 202.661,218.400 203.397,218.400 203.895 C 218.400 204.433,218.157 204.800,217.800 204.800 C 217.427 204.800,217.200 205.178,217.200 205.800 C 217.200 206.350,217.020 206.800,216.800 206.800 C 216.580 206.800,216.400 207.250,216.400 207.800 C 216.400 208.454,216.176 208.800,215.753 208.800 C 215.311 208.800,215.171 209.044,215.309 209.574 C 215.426 210.022,215.277 210.438,214.956 210.562 C 214.650 210.679,214.400 211.141,214.400 211.587 C 214.400 212.034,214.220 212.400,214.000 212.400 C 213.780 212.400,213.600 213.036,213.600 213.813 C 213.600 214.699,213.377 215.311,213.000 215.455 C 212.630 215.597,212.400 216.205,212.400 217.043 C 212.400 217.789,212.220 218.400,212.000 218.400 C 211.780 218.400,211.600 219.126,211.600 220.014 C 211.600 220.902,211.310 222.071,210.955 222.612 C 210.508 223.294,210.390 224.021,210.569 224.977 C 210.734 225.857,210.606 226.891,210.214 227.828 C 209.379 229.826,209.355 241.307,210.183 242.800 C 210.547 243.458,210.661 244.448,210.514 245.692 C 210.335 247.211,210.420 247.633,210.945 247.834 C 211.414 248.014,211.600 248.585,211.600 249.843 C 211.600 250.809,211.780 251.600,212.000 251.600 C 212.220 251.600,212.400 252.236,212.400 253.013 C 212.400 253.899,212.623 254.511,213.000 254.655 C 213.370 254.797,213.600 255.405,213.600 256.243 C 213.600 256.989,213.780 257.600,214.000 257.600 C 214.220 257.600,214.400 258.050,214.400 258.600 C 214.400 259.193,214.629 259.600,214.963 259.600 C 215.328 259.600,215.452 259.880,215.316 260.400 C 215.170 260.956,215.304 261.200,215.753 261.200 C 216.176 261.200,216.400 261.546,216.400 262.200 C 216.400 262.750,216.580 263.200,216.800 263.200 C 217.020 263.200,217.200 263.650,217.200 264.200 C 217.200 264.822,217.427 265.200,217.800 265.200 C 218.146 265.200,218.400 265.561,218.400 266.053 C 218.400 266.522,218.795 267.249,219.279 267.668 C 219.762 268.088,220.198 268.705,220.247 269.041 C 220.296 269.377,220.711 269.976,221.168 270.373 C 221.626 270.769,222.000 271.393,222.000 271.759 C 222.000 272.126,222.270 272.529,222.600 272.655 C 222.930 272.782,223.200 273.055,223.200 273.261 C 223.200 273.772,225.062 275.600,225.582 275.600 C 225.812 275.600,226.000 275.793,226.000 276.029 C 226.000 276.582,227.018 277.600,227.571 277.600 C 227.807 277.600,228.000 277.788,228.000 278.018 C 228.000 278.561,229.839 280.400,230.382 280.400 C 230.612 280.400,230.800 280.593,230.800 280.829 C 230.800 281.362,231.810 282.400,232.329 282.400 C 232.541 282.400,232.818 282.670,232.945 283.000 C 233.071 283.330,233.451 283.600,233.787 283.600 C 234.124 283.600,234.400 283.780,234.400 284.000 C 234.400 284.220,234.670 284.400,235.000 284.400 C 235.330 284.400,235.600 284.580,235.600 284.800 C 235.600 285.020,236.050 285.200,236.600 285.200 C 237.150 285.200,237.600 285.393,237.600 285.629 C 237.600 286.334,238.686 287.200,239.571 287.200 C 240.041 287.200,240.400 287.460,240.400 287.800 C 240.400 288.158,240.768 288.400,241.312 288.400 C 241.813 288.400,242.483 288.760,242.800 289.200 C 243.117 289.640,243.768 290.000,244.246 290.000 C 244.723 290.000,245.218 290.270,245.345 290.600 C 245.479 290.951,246.079 291.200,246.787 291.200 C 247.454 291.200,248.000 291.380,248.000 291.600 C 248.000 291.820,248.611 292.000,249.357 292.000 C 250.195 292.000,250.803 292.230,250.945 292.600 C 251.079 292.951,251.679 293.200,252.387 293.200 C 253.054 293.200,253.600 293.380,253.600 293.600 C 253.600 293.820,254.309 294.000,255.176 294.000 C 256.043 294.000,256.864 294.180,257.000 294.400 C 257.136 294.620,258.295 294.800,259.575 294.800 C 261.155 294.800,262.062 294.992,262.400 295.400 C 262.812 295.896,264.266 296.000,270.820 296.000 C 277.329 296.000,278.850 295.893,279.343 295.400 C 279.733 295.010,280.724 294.800,282.171 294.800 C 283.397 294.800,284.400 294.620,284.400 294.400 C 284.400 294.180,285.019 294.000,285.776 294.000 C 286.533 294.000,287.264 293.820,287.400 293.600 C 287.536 293.380,288.177 293.200,288.824 293.200 C 289.603 293.200,290.000 292.997,290.000 292.600 C 290.000 292.167,290.444 292.000,291.600 292.000 C 292.480 292.000,293.200 291.820,293.200 291.600 C 293.200 291.380,293.746 291.200,294.413 291.200 C 295.121 291.200,295.721 290.951,295.855 290.600 C 295.982 290.270,296.286 290.000,296.531 290.000 C 297.424 290.000,300.786 288.186,300.793 287.700 C 300.797 287.425,301.149 287.200,301.576 287.200 C 302.003 287.200,302.464 287.020,302.600 286.800 C 302.736 286.580,303.197 286.400,303.624 286.400 C 304.051 286.400,304.400 286.580,304.400 286.800 C 304.400 287.020,304.670 287.200,305.000 287.200 C 305.330 287.200,305.600 287.393,305.600 287.629 C 305.600 288.095,306.585 289.200,307.000 289.200 C 307.334 289.200,308.400 290.266,308.400 290.600 C 308.400 291.015,309.505 292.000,309.971 292.000 C 310.207 292.000,310.400 292.193,310.400 292.429 C 310.400 292.895,311.385 294.000,311.800 294.000 C 312.134 294.000,313.200 295.066,313.200 295.400 C 313.200 295.815,314.305 296.800,314.771 296.800 C 315.007 296.800,315.200 296.993,315.200 297.229 C 315.200 297.695,316.185 298.800,316.600 298.800 C 316.934 298.800,318.000 299.866,318.000 300.200 C 318.000 300.615,319.105 301.600,319.571 301.600 C 319.807 301.600,320.000 301.793,320.000 302.029 C 320.000 302.495,320.985 303.600,321.400 303.600 C 321.734 303.600,322.800 304.666,322.800 305.000 C 322.800 305.415,323.905 306.400,324.371 306.400 C 324.607 306.400,324.800 306.593,324.800 306.829 C 324.800 307.382,325.818 308.400,326.371 308.400 C 326.607 308.400,326.800 308.580,326.800 308.800 C 326.800 309.020,327.138 309.200,327.551 309.200 C 327.964 309.200,328.526 309.470,328.800 309.800 C 329.187 310.266,330.269 310.400,333.649 310.400 C 337.250 310.400,338.000 310.297,338.000 309.800 C 338.000 309.427,338.378 309.200,339.000 309.200 C 339.550 309.200,340.000 309.020,340.000 308.800 C 340.000 308.580,340.193 308.400,340.429 308.400 C 340.895 308.400,342.000 307.415,342.000 307.000 C 342.000 306.585,343.105 305.600,343.571 305.600 C 343.807 305.600,344.000 305.330,344.000 305.000 C 344.000 304.670,344.180 304.400,344.400 304.400 C 344.620 304.400,344.800 304.062,344.800 303.649 C 344.800 303.236,345.070 302.674,345.400 302.400 C 345.856 302.022,346.000 300.996,346.000 298.138 C 346.000 295.162,345.875 294.327,345.400 294.145 C 345.070 294.018,344.794 293.619,344.787 293.257 C 344.771 292.428,343.857 291.200,343.256 291.200 C 343.005 291.200,342.800 291.012,342.800 290.782 C 342.800 290.239,340.961 288.400,340.418 288.400 C 340.188 288.400,340.000 288.207,340.000 287.971 C 340.000 287.418,338.982 286.400,338.429 286.400 C 338.193 286.400,338.000 286.130,338.000 285.800 C 338.000 285.133,336.616 283.600,336.014 283.600 C 335.802 283.600,335.422 283.195,335.170 282.700 C 334.918 282.205,333.741 280.859,332.556 279.709 C 331.370 278.559,330.400 277.511,330.400 277.380 C 330.400 276.981,329.284 276.000,328.829 276.000 C 328.593 276.000,328.400 275.807,328.400 275.571 C 328.400 275.018,327.382 274.000,326.829 274.000 C 326.593 274.000,326.400 273.812,326.400 273.582 C 326.400 273.039,324.561 271.200,324.018 271.200 C 323.788 271.200,323.600 270.996,323.600 270.747 C 323.600 270.497,323.143 269.900,322.584 269.420 C 321.621 268.593,321.532 267.200,322.443 267.200 C 322.639 267.200,322.800 266.750,322.800 266.200 C 322.800 265.650,322.980 265.200,323.200 265.200 C 323.420 265.200,323.600 265.008,323.600 264.773 C 323.600 264.539,324.050 263.757,324.600 263.036 C 325.150 262.314,325.606 261.471,325.613 261.162 C 325.620 260.853,325.890 260.251,326.213 259.824 C 326.536 259.396,326.800 258.721,326.800 258.324 C 326.800 257.926,326.980 257.600,327.200 257.600 C 327.420 257.600,327.600 257.150,327.600 256.600 C 327.600 256.050,327.780 255.600,328.000 255.600 C 328.220 255.600,328.400 254.700,328.400 253.600 C 328.400 252.089,328.547 251.600,329.000 251.600 C 329.444 251.600,329.600 251.133,329.600 249.800 C 329.600 248.810,329.780 248.000,330.000 248.000 C 330.221 248.000,330.400 246.960,330.400 245.680 C 330.400 244.357,330.615 243.145,330.900 242.861 C 331.733 242.029,331.851 229.108,331.033 228.290 C 330.575 227.832,330.400 226.875,330.400 224.829 C 330.400 223.210,330.229 222.000,330.000 222.000 C 329.780 222.000,329.600 221.209,329.600 220.243 C 329.600 219.050,329.407 218.412,329.000 218.255 C 328.626 218.112,328.400 217.502,328.400 216.636 C 328.400 215.872,328.220 215.136,328.000 215.000 C 327.780 214.864,327.600 214.223,327.600 213.576 C 327.600 212.929,327.420 212.400,327.200 212.400 C 326.980 212.400,326.800 212.034,326.800 211.587 C 326.800 211.141,326.530 210.671,326.200 210.545 C 325.858 210.413,325.600 209.817,325.600 209.157 C 325.600 208.521,325.420 208.000,325.200 208.000 C 324.980 208.000,324.800 207.730,324.800 207.400 C 324.800 207.070,324.530 206.800,324.200 206.800 C 323.827 206.800,323.600 206.422,323.600 205.800 C 323.600 205.250,323.420 204.800,323.200 204.800 C 322.980 204.800,322.800 204.427,322.800 203.971 C 322.800 203.086,321.934 202.000,321.229 202.000 C 320.993 202.000,320.800 201.627,320.800 201.171 C 320.800 200.286,319.934 199.200,319.229 199.200 C 318.993 199.200,318.800 198.930,318.800 198.600 C 318.800 198.270,318.620 198.000,318.400 198.000 C 318.180 198.000,318.000 197.663,318.000 197.251 C 318.000 196.839,317.370 195.964,316.600 195.306 C 315.830 194.648,315.200 193.905,315.200 193.655 C 315.200 193.405,315.007 193.200,314.771 193.200 C 314.305 193.200,313.200 192.215,313.200 191.800 C 313.200 191.466,312.134 190.400,311.800 190.400 C 311.385 190.400,310.400 189.295,310.400 188.829 C 310.400 188.593,310.130 188.400,309.800 188.400 C 309.470 188.400,309.200 188.220,309.200 188.000 C 309.200 187.780,308.927 187.600,308.593 187.600 C 308.259 187.600,307.374 186.970,306.626 186.200 C 305.879 185.430,304.892 184.800,304.433 184.800 C 303.959 184.800,303.600 184.541,303.600 184.200 C 303.600 183.870,303.330 183.600,303.000 183.600 C 302.670 183.600,302.400 183.420,302.400 183.200 C 302.400 182.980,302.059 182.800,301.643 182.800 C 301.226 182.800,300.782 182.530,300.655 182.200 C 300.529 181.870,300.059 181.600,299.613 181.600 C 299.166 181.600,298.800 181.420,298.800 181.200 C 298.800 180.980,298.451 180.800,298.024 180.800 C 297.597 180.800,297.136 180.620,297.000 180.400 C 296.864 180.180,296.313 180.000,295.776 180.000 C 295.175 180.000,294.800 179.769,294.800 179.400 C 294.800 179.031,294.425 178.800,293.824 178.800 C 293.287 178.800,292.736 178.620,292.600 178.400 C 292.464 178.180,291.843 178.000,291.219 178.000 C 290.581 178.000,289.985 177.738,289.855 177.400 C 289.721 177.049,289.121 176.800,288.413 176.800 C 287.746 176.800,287.200 176.620,287.200 176.400 C 287.200 176.180,286.311 176.000,285.224 176.000 C 284.137 176.000,283.136 175.820,283.000 175.600 C 282.864 175.380,281.163 175.200,279.219 175.200 C 276.447 175.200,275.636 175.071,275.455 174.600 C 275.268 174.111,274.305 174.000,270.262 174.000 C 266.337 174.000,265.194 174.126,264.800 174.600 M89.800 183.200 C 89.664 183.420,88.933 183.600,88.176 183.600 C 87.220 183.600,86.800 183.783,86.800 184.200 C 86.800 184.530,86.665 184.800,86.500 184.800 C 86.014 184.801,84.000 186.656,84.000 187.104 C 84.000 187.330,83.710 187.626,83.356 187.761 C 82.859 187.952,82.772 188.326,82.974 189.404 C 83.138 190.275,83.079 190.800,82.818 190.800 C 82.588 190.800,82.400 191.160,82.400 191.600 C 82.400 192.040,82.588 192.400,82.818 192.400 C 83.076 192.400,83.140 192.914,82.985 193.738 C 82.807 194.688,82.918 195.261,83.367 195.710 C 83.715 196.058,84.000 196.459,84.000 196.600 C 84.000 197.015,85.105 198.000,85.571 198.000 C 85.807 198.000,86.000 198.270,86.000 198.600 C 86.000 198.930,86.349 199.200,86.776 199.200 C 87.203 199.200,87.664 199.380,87.800 199.600 C 87.963 199.864,109.671 200.000,151.624 200.000 L 215.200 200.000 215.200 199.000 C 215.200 198.450,215.393 198.000,215.629 198.000 C 216.095 198.000,217.200 197.015,217.200 196.600 C 217.200 196.459,217.425 196.092,217.700 195.785 C 218.786 194.574,219.200 194.023,219.200 193.788 C 219.200 193.382,220.312 192.400,220.771 192.400 C 221.007 192.400,221.200 192.199,221.200 191.953 C 221.200 191.707,222.740 190.024,224.622 188.212 C 227.663 185.286,228.015 184.800,227.779 183.859 L 227.513 182.800 158.780 182.800 C 113.390 182.800,89.963 182.936,89.800 183.200 M274.600 194.800 C 274.736 195.020,276.086 195.200,277.600 195.200 C 279.114 195.200,280.464 195.380,280.600 195.600 C 280.736 195.820,281.467 196.000,282.224 196.000 C 283.180 196.000,283.600 196.183,283.600 196.600 C 283.600 197.019,284.022 197.200,285.000 197.200 C 285.770 197.200,286.400 197.380,286.400 197.600 C 286.400 197.820,286.850 198.000,287.400 198.000 C 288.022 198.000,288.400 198.227,288.400 198.600 C 288.400 198.930,288.749 199.200,289.176 199.200 C 289.603 199.200,290.064 199.380,290.200 199.600 C 290.336 199.820,290.797 200.000,291.224 200.000 C 291.651 200.000,292.000 200.180,292.000 200.400 C 292.000 200.620,292.270 200.800,292.600 200.800 C 292.930 200.800,293.200 201.005,293.200 201.256 C 293.200 201.871,294.435 202.772,295.300 202.787 C 295.685 202.794,296.000 202.993,296.000 203.229 C 296.000 203.684,296.981 204.800,297.380 204.800 C 297.727 204.800,301.600 208.919,301.600 209.287 C 301.600 209.459,301.793 209.600,302.029 209.600 C 302.686 209.600,303.600 210.662,303.600 211.426 C 303.600 211.801,304.050 212.525,304.600 213.035 C 305.150 213.545,305.600 214.240,305.600 214.581 C 305.600 214.921,305.780 215.200,306.000 215.200 C 306.220 215.200,306.400 215.650,306.400 216.200 C 306.400 216.822,306.627 217.200,307.000 217.200 C 307.373 217.200,307.600 217.578,307.600 218.200 C 307.600 218.750,307.780 219.200,308.000 219.200 C 308.220 219.200,308.400 219.830,308.400 220.600 C 308.400 221.586,308.580 222.000,309.008 222.000 C 309.446 222.000,309.549 222.262,309.379 222.942 C 309.230 223.534,309.377 224.120,309.771 224.514 C 310.176 224.919,310.400 225.858,310.400 227.148 C 310.400 228.251,310.580 229.264,310.800 229.400 C 311.035 229.545,311.200 231.871,311.200 235.024 C 311.200 238.341,311.047 240.400,310.800 240.400 C 310.578 240.400,310.400 241.456,310.400 242.767 C 310.400 244.200,310.218 245.194,309.938 245.287 C 309.684 245.372,309.452 246.139,309.423 246.992 C 309.393 247.846,309.151 248.616,308.884 248.705 C 308.618 248.794,308.400 249.302,308.400 249.833 C 308.400 250.365,308.220 250.800,308.000 250.800 C 307.780 250.800,307.600 251.231,307.600 251.757 C 307.600 252.284,307.330 252.818,307.000 252.945 C 306.670 253.071,306.400 253.541,306.400 253.987 C 306.400 254.434,306.220 254.800,306.000 254.800 C 305.780 254.800,305.600 255.250,305.600 255.800 C 305.600 256.350,305.395 256.800,305.144 256.800 C 304.587 256.800,303.630 258.005,303.613 258.729 C 303.597 259.369,302.620 260.400,302.029 260.400 C 301.793 260.400,301.600 260.601,301.600 260.847 C 301.600 261.296,295.839 267.200,295.401 267.200 C 295.176 267.200,294.615 267.623,293.415 268.700 C 293.108 268.975,292.664 269.200,292.429 269.200 C 292.193 269.200,292.000 269.380,292.000 269.600 C 292.000 269.820,291.706 270.000,291.346 270.000 C 290.986 270.000,290.275 270.450,289.765 271.000 C 289.255 271.551,288.391 272.000,287.843 272.000 C 287.295 272.000,286.736 272.180,286.600 272.400 C 286.464 272.620,285.926 272.800,285.405 272.800 C 284.884 272.800,284.187 273.070,283.857 273.400 C 283.527 273.730,282.805 274.000,282.252 274.000 C 281.699 274.000,281.136 274.180,281.000 274.400 C 280.864 274.620,279.863 274.800,278.776 274.800 C 277.689 274.800,276.800 274.980,276.800 275.200 C 276.800 275.449,274.475 275.600,270.624 275.600 C 266.937 275.600,264.348 275.439,264.200 275.200 C 264.064 274.980,263.153 274.800,262.176 274.800 C 261.199 274.800,260.400 274.620,260.400 274.400 C 260.400 274.180,259.770 274.000,259.000 274.000 C 258.230 274.000,257.600 273.823,257.600 273.608 C 257.600 273.392,257.105 273.108,256.500 272.977 C 254.580 272.560,250.800 270.791,250.800 270.309 C 250.800 270.139,250.393 270.000,249.895 270.000 C 249.396 270.000,248.653 269.551,248.239 269.000 C 247.826 268.450,247.193 268.000,246.832 268.000 C 246.472 268.000,245.917 267.640,245.600 267.200 C 245.283 266.760,244.793 266.400,244.512 266.400 C 244.230 266.400,244.000 266.222,244.000 266.005 C 244.000 265.483,240.126 261.600,239.605 261.600 C 239.382 261.600,239.200 261.370,239.200 261.088 C 239.200 260.807,238.840 260.317,238.400 260.000 C 237.960 259.683,237.600 259.201,237.600 258.930 C 237.600 258.658,237.150 257.986,236.600 257.436 C 236.050 256.886,235.600 256.068,235.600 255.618 C 235.600 255.158,235.338 254.800,235.000 254.800 C 234.627 254.800,234.400 254.422,234.400 253.800 C 234.400 253.250,234.220 252.800,234.000 252.800 C 233.780 252.800,233.600 252.350,233.600 251.800 C 233.600 251.250,233.420 250.800,233.200 250.800 C 232.980 250.800,232.800 250.363,232.800 249.829 C 232.800 249.294,232.530 248.587,232.200 248.257 C 231.870 247.927,231.600 247.104,231.600 246.429 C 231.600 245.753,231.420 245.200,231.200 245.200 C 230.975 245.200,230.800 244.083,230.800 242.649 C 230.800 240.869,230.619 239.947,230.200 239.600 C 229.742 239.220,229.600 238.181,229.600 235.200 C 229.600 232.219,229.742 231.180,230.200 230.800 C 230.609 230.461,230.800 229.553,230.800 227.951 C 230.800 226.650,230.979 225.600,231.200 225.600 C 231.420 225.600,231.600 224.809,231.600 223.843 C 231.600 222.650,231.793 222.012,232.200 221.855 C 232.530 221.729,232.800 221.270,232.800 220.836 C 232.800 220.402,232.980 219.936,233.200 219.800 C 233.420 219.664,233.600 219.175,233.600 218.714 C 233.600 218.253,234.050 217.286,234.600 216.564 C 235.150 215.843,235.600 215.061,235.600 214.827 C 235.600 214.592,235.780 214.400,236.000 214.400 C 236.220 214.400,236.400 213.950,236.400 213.400 C 236.400 212.850,236.605 212.400,236.856 212.400 C 237.400 212.400,238.369 211.202,238.387 210.507 C 238.404 209.870,245.476 202.804,246.114 202.787 C 246.803 202.769,248.000 201.797,248.000 201.256 C 248.000 201.005,248.326 200.800,248.725 200.800 C 249.123 200.800,249.836 200.440,250.308 200.000 C 250.780 199.560,251.521 199.200,251.955 199.200 C 252.388 199.200,253.013 198.930,253.343 198.600 C 253.673 198.270,254.316 198.000,254.771 198.000 C 255.227 198.000,255.600 197.820,255.600 197.600 C 255.600 197.380,256.050 197.200,256.600 197.200 C 257.222 197.200,257.600 196.973,257.600 196.600 C 257.600 196.168,258.042 196.000,259.176 196.000 C 260.043 196.000,260.864 195.820,261.000 195.600 C 261.136 195.380,262.486 195.200,264.000 195.200 C 265.514 195.200,266.864 195.020,267.000 194.800 C 267.136 194.580,268.846 194.400,270.800 194.400 C 272.754 194.400,274.464 194.580,274.600 194.800 M88.800 216.800 C 88.800 217.020,88.350 217.200,87.800 217.200 C 87.199 217.200,86.800 217.429,86.800 217.772 C 86.800 218.087,86.427 218.402,85.971 218.472 C 85.516 218.542,84.841 219.140,84.471 219.800 C 84.102 220.460,83.562 221.151,83.271 221.336 C 82.899 221.573,82.820 222.136,83.006 223.236 C 83.179 224.258,83.120 224.800,82.835 224.800 C 82.596 224.800,82.400 225.070,82.400 225.400 C 82.400 225.730,82.588 226.000,82.818 226.000 C 83.076 226.000,83.140 226.514,82.985 227.338 C 82.807 228.288,82.918 228.861,83.367 229.310 C 83.715 229.658,84.000 230.059,84.000 230.200 C 84.000 230.615,85.105 231.600,85.571 231.600 C 85.807 231.600,86.000 231.767,86.000 231.971 C 86.000 233.612,85.547 233.600,146.661 233.600 L 204.800 233.600 204.800 229.800 C 204.800 227.533,204.961 226.000,205.200 226.000 C 205.420 226.000,205.600 225.177,205.600 224.171 C 205.600 223.079,205.842 222.101,206.200 221.743 C 206.598 221.344,206.800 220.346,206.800 218.771 L 206.800 216.400 147.800 216.400 C 108.733 216.400,88.800 216.535,88.800 216.800 M146.657 297.400 C 146.327 297.730,145.946 298.000,145.810 298.000 C 145.419 298.000,143.600 299.924,143.600 300.339 C 143.600 300.545,143.330 300.818,143.000 300.945 C 141.829 301.394,142.160 309.950,143.400 311.287 C 143.950 311.880,144.400 312.553,144.400 312.783 C 144.400 313.012,144.850 313.200,145.400 313.200 C 145.950 313.200,146.400 313.380,146.400 313.600 C 146.400 313.864,162.267 314.000,193.200 314.000 C 224.133 314.000,240.000 313.864,240.000 313.600 C 240.000 313.380,240.190 313.200,240.423 313.200 C 242.988 313.200,244.603 302.673,242.400 300.308 C 241.960 299.836,241.589 299.618,241.575 299.825 C 241.561 300.031,241.380 299.778,241.174 299.262 C 240.967 298.747,240.451 298.234,240.027 298.123 C 239.602 298.012,239.159 297.669,239.040 297.361 C 238.704 296.485,147.533 296.524,146.657 297.400 " stroke="none" fill="#242424" fill-rule="evenodd"></path><path id="path1" d="" stroke="none" fill="#282424" fill-rule="evenodd"></path><path id="path2" d="" stroke="none" fill="#282424" fill-rule="evenodd"></path><path id="path3" d="" stroke="none" fill="#282424" fill-rule="evenodd"></path><path id="path4" d="" stroke="none" fill="#282424" fill-rule="evenodd"></path></g></svg>